<?xml version="1.0" encoding="UTF-8"?>
<svg id="Layer_2" data-name="Layer 2" xmlns="http://www.w3.org/2000/svg" xmlns:xlink="http://www.w3.org/1999/xlink" viewBox="0 0 735.56 324.79">
  <defs>
    <style>
      .cls-1 {
        fill: #fff;
      }

      .cls-2 {
        fill: url(#radial-gradient);
      }
    </style>
    <radialGradient id="radial-gradient" cx="776.87" cy="44.57" fx="776.87" fy="44.57" r="794.13" gradientUnits="userSpaceOnUse">
      <stop offset="0" stop-color="#f79220"/>
      <stop offset="1" stop-color="#f173a1"/>
    </radialGradient>
  </defs>
  <g id="Layer_1-2" data-name="Layer 1">
    <g>
      <path class="cls-2" d="m653.53,322.79c-14.92,0-28.33-2.9-36.03-5.65-6.27,3.51-12.93,4-19.2,4h-54.07c-9.13,0-16.6-2.46-22.23-7.31-10.56,5.95-22.7,8.96-36.14,8.96s-26.5-3.97-36.59-11.49c-1.53,1.77-3.28,3.32-5.22,4.63-6.77,4.58-14.18,5.21-21.17,5.21h-54.07c-10.41,0-18.65-3.19-24.49-9.47-5.68-6.11-8.21-14.09-7.51-23.7l.02-.26,2.4-24.59c.05-.48.27-.93.62-1.27l5.49-5.14c4.27-4.02,9.93-8.49,15.92-13.22l.67-.53c1.04-.82,2.23-1.77,3.51-2.8l-6.43-8.44c-1.36-1.71-3.89-5.35-5.9-10.88-12.13-.64-22.44-3.76-30.69-9.26-6.84,4.7-15.76,7.08-26.53,7.08h-21.3c-6.26,0-12-1.01-17.11-3-4.72,10.56-13.08,19.55-24.3,26.07-15.48,9.01-36.38,13.58-62.11,13.58-23.44,0-40.26-1.78-52.95-5.6-11.56-3.49-30.9-12.55-34.12-34.4-5.56,2.22-12.08,3.35-19.43,3.35h-21.3c-15.24,0-24.51-6.19-29.61-11.38-12.12-12.36-11.8-29.37-11.62-38.51v-.39c1.19-31.54,2.27-88.14,2.06-95.96v-.21c-.02-1.19-.18-2.88-.35-4.67l-.04-.44c-.93-9.58-2.34-24.08,8.45-35.97,7.34-8.09,18.19-12.19,32.26-12.19h21.3c15.59,0,24.98,6.35,30.1,11.67,9.64,10.02,11.1,23.5,11.24,31.16,14.61-10.33,35.08-15.36,62.4-15.36h83.26c.86,0,1.62.55,1.89,1.36l.84,2.47c8.7-3.37,18.25-3.83,25.77-3.83,10.11,0,24.47,1.81,36.28,10.27,9.83-6.73,21.56-10.27,34.03-10.27,20.21,0,32.59,8.49,39.42,15.62.05.05.09.09.14.14-2.52-5.3-3.88-11.38-4.07-18.13-.31-12.35,3.21-22.39,10.47-29.84,11.9-12.21,29.09-12.21,38.32-12.21,9.79,0,20.15.69,29.57,5.67,7.24,3.83,19.51,13.47,20.35,34.94v.26s.01.33.01.33c.04,3.09-.17,6.07-.63,8.89,3.13-1.14,4.69-2.07,5.34-2.53.1-.31.2-.68.28-.96l.32-1.11.15-.44c6.76-20.26,22.58-23.29,31.41-23.29,1.06,0,3.16-.14,4.64-.25h.15c3-.21,6.41-.44,10.05-.44,4.95,0,20.01,0,30.22,10.7,4.03,4.22,6.71,9.53,7.79,15.44,6,.94,11.11,3.24,15.23,6.83,2.84,2.48,5.13,5.54,6.7,8.95,15.03-12.16,34.96-18.57,57.82-18.57s42.92,6.71,56.89,19.41c13.84,12.59,21.45,30.67,21.45,50.92,0,15.29-3.94,27.36-11.72,35.86-.13.14-.26.28-.39.42,2.11,5.12,3.39,10.53,3.81,16.11.48,6,.07,14.94-4.49,23.86,3.46,8.14,4.56,17.46,3.16,27.03-1.02,7.14-3.38,13.71-7.02,19.55,4.4,7.34,6.45,15.87,6.08,25.4-.55,16.69-8.17,31.75-21.46,42.39-12.57,10.08-29.17,15.41-48,15.41Z"/>
      <path class="cls-1" d="m435.82,4c9.53,0,19.6.66,28.64,5.44,6.86,3.63,18.49,12.77,19.29,33.25v.26s0,.25,0,.25c.06,4.34-.39,8.38-1.35,12.09.87-.38,1.76-.73,2.69-1.07l.2-.07c4.66-1.64,6.42-2.98,6.87-3.38.15-.39.36-1.13.52-1.69l.3-1.04.12-.36c6.36-19.07,21.22-21.92,29.51-21.92,1.06,0,2.95-.12,4.78-.25,3.02-.2,6.43-.43,10.06-.43,4.74,0,19.15,0,28.77,10.08,4.11,4.3,6.68,9.79,7.5,15.84,6.25.73,11.5,2.93,15.65,6.56,2.59,2.26,5.5,5.74,7.19,10.75,14.92-13.03,35.04-19.88,58.65-19.88s41.95,6.53,55.54,18.89c13.41,12.2,20.8,29.75,20.8,49.44,0,14.78-3.77,26.39-11.2,34.51-.4.44-.83.88-1.28,1.33,2.05,4.63,3.69,10.22,4.18,16.7.48,6,.02,14.9-4.71,23.63,3.6,7.96,4.81,17.16,3.4,26.82-1.13,7.9-3.86,14.45-7.41,19.82,4.22,6.56,6.85,14.94,6.45,25.34-.53,16.11-7.89,30.64-20.71,40.91-12.21,9.79-28.38,14.97-46.75,14.97-14.88,0-28.14-2.91-35.64-5.64-.18-.06-.38-.14-.59-.21-6.06,3.67-12.69,4.2-19,4.2h-54.07c-9.22,0-16.6-2.61-21.97-7.77-10.47,6.21-22.77,9.42-36.4,9.42s-26.92-4.23-36.92-12.28c-1.52,2.06-3.47,4.05-6.01,5.76-6.33,4.28-13.38,4.87-20.05,4.87h-54.07c-9.83,0-17.58-2.97-23.02-8.83-5.29-5.69-7.64-13.16-6.98-22.19l.02-.25,2.4-24.55,5.49-5.14c4.19-3.94,9.83-8.4,15.79-13.11,1.56-1.24,3.53-2.8,5.71-4.56l-7.61-9.99c-1.22-1.53-4.02-5.46-6.05-11.6-13.88-.52-24.4-4.24-32.16-9.77-6.63,5-15.52,7.53-26.51,7.53h-21.3c-6.82,0-12.92-1.24-18.17-3.62-4.36,10.93-12.6,20.19-24.24,26.96-15.17,8.83-35.73,13.31-61.1,13.31-23.26,0-39.9-1.76-52.37-5.52-26.36-7.97-32.16-24.78-33.02-35.41-5.83,2.85-12.89,4.28-21.11,4.28h-21.3c-14.54,0-23.35-5.86-28.18-10.78-11.54-11.76-11.22-28.23-11.05-37.08v-.37c1.19-31.42,2.27-88.13,2.06-96.07v-.16c-.02-1.4-.21-3.3-.4-5.3-.9-9.24-2.25-23.21,7.94-34.44,6.94-7.65,17.3-11.53,30.78-11.53h21.3c14.9,0,23.81,6.02,28.66,11.06,10.19,10.59,10.86,25.02,10.66,33.82,14.39-11.7,35.55-17.4,64.42-17.4h83.26l1.53,4.5c8.56-3.85,18.49-4.5,26.97-4.5,9.5,0,24.44,1.69,36.25,10.74,9.04-6.53,20.62-10.74,34.06-10.74,19.5,0,31.42,8.16,37.98,15,.97,1.01,1.89,2.06,2.75,3.13.59-.9,1.25-1.8,1.98-2.68-2.89-4.97-4.99-11.46-5.22-19.88-.3-11.79,3.03-21.34,9.9-28.39,11.31-11.61,27.95-11.61,36.89-11.61m0-4c-9.53,0-27.27,0-39.76,12.82-7.65,7.85-11.36,18.38-11.03,31.28.11,4.01.62,7.8,1.53,11.35-7.6-5.79-18.92-11.02-35.02-11.02-12.39,0-24.08,3.4-34.01,9.85-12.01-8.09-26.22-9.85-36.3-9.85-7.13,0-16.08.41-24.53,3.26l-.18-.54c-.55-1.62-2.07-2.71-3.79-2.71h-83.26c-25.93,0-45.85,4.5-60.55,13.73-.57-8.13-2.9-19.83-11.65-28.92-5.39-5.61-15.24-12.29-31.54-12.29h-21.3c-14.66,0-26.01,4.32-33.74,12.84C-.7,42.35.82,57.97,1.73,67.31l.04.43c.17,1.74.32,3.38.34,4.52v.13s0,.07,0,.11c.21,7.8-.87,64.33-2.05,95.81v.41c-.19,9.47-.53,27.03,12.18,39.99,5.36,5.46,15.1,11.98,31.04,11.98h21.3c6.63,0,12.63-.89,17.9-2.66,2.34,10.97,10.24,26.11,35.07,33.62,12.88,3.88,29.89,5.69,53.53,5.69,26.09,0,47.32-4.66,63.11-13.85,10.98-6.39,19.32-15.08,24.33-25.29,4.88,1.66,10.27,2.5,16.07,2.5h21.3c10.62,0,19.53-2.25,26.54-6.69,8.05,5.06,17.87,8.01,29.27,8.79,2.01,5.07,4.39,8.49,5.75,10.21l5.22,6.85c-.68.54-1.33,1.06-1.92,1.53l-.73.58c-6.02,4.75-11.71,9.25-16.04,13.33l-5.48,5.13c-.71.66-1.15,1.56-1.25,2.53l-2.4,24.55s0,.05,0,.07l-.02.25c-.75,10.21,1.96,18.69,8.04,25.23,6.22,6.71,14.96,10.11,25.95,10.11h54.07c7.31,0,15.07-.67,22.29-5.56,1.58-1.06,3.04-2.28,4.37-3.63,10.18,7.1,22.65,10.83,36.32,10.83s25.34-2.88,35.91-8.55c5.86,4.58,13.4,6.9,22.46,6.9h54.07c5.99,0,12.9-.48,19.37-3.83,7.97,2.72,21.21,5.48,35.86,5.48,19.29,0,36.32-5.48,49.25-15.85,13.75-11.02,21.64-26.61,22.21-43.9.36-9.45-1.57-18-5.76-25.43,3.43-5.82,5.68-12.29,6.68-19.29,1.4-9.59.38-18.96-2.95-27.23,4.38-9.05,4.77-18.02,4.28-24.1-.4-5.35-1.57-10.56-3.48-15.52,7.82-8.84,11.79-21.19,11.79-36.71,0-20.82-7.85-39.43-22.11-52.4-14.34-13.04-34.47-19.93-58.23-19.93-22.37,0-42,6.04-57.15,17.51-1.59-2.77-3.63-5.28-6.06-7.39-4.08-3.57-9.07-5.94-14.85-7.06-1.3-5.74-4.05-10.91-8.04-15.09-10.8-11.32-26.5-11.32-31.66-11.32-3.7,0-7.14.23-10.17.43h-.15c-1.47.11-3.51.25-4.52.25-4.42,0-11.04.75-17.43,4.32-7.41,4.14-12.76,10.98-15.88,20.34l-.12.36c-.02.05-.03.1-.05.16l-.3,1.04-.02.08c-.02.07-.04.14-.07.23-.3.18-.7.39-1.22.64.17-1.86.24-3.78.22-5.75v-.22c0-.05,0-.1,0-.15v-.26c-.89-22.48-13.8-32.6-21.43-36.63-9.81-5.19-20.46-5.9-30.51-5.9h0Z"/>
    </g>
    <g>
      <path class="cls-1" d="m65.72,40.95h-21.3c-25.42,0-18.55,17.87-18.32,30.92.23,8.93-.92,66.87-2.06,97.33-.23,11.91,0,27.48,19.23,27.48h21.3c25.42,0,18.78-17.86,17.87-30.91-1.38-19.24,2.06-84.51,2.52-97.57.45-11.9.22-27.25-19.24-27.25Z"/>
      <path class="cls-1" d="m200.38,162.33c-5.04,0-28.63.69-32.52.69-4.58,0-6.18-1.83-6.18-4.12,0-2.52,1.83-3.44,5.26-3.44,34.36,0,58.63-6.18,58.18-32.29-.23-11.91-7.1-20.61-14.2-23.13l.23-1.38c4.35.69,8.93,1.61,14.2,1.38,23.81,0,13.05-31.61,13.05-31.61h-68.94c-53.82,0-65.72,21.76-65.04,45.81.69,32.75,37.56,36.41,37.56,36.41v1.15s-26.79-3.21-26.79,21.07c0,18.09,16.71,18.78,16.71,18.78v1.14s-26.79-2.98-26.33,16.95c.46,19.01,28.17,23.59,65.5,23.59,44.2,0,68.93-15.12,68.93-39.39,0-21.76-17.63-31.61-39.62-31.61Zm-49.7-49.24c-.45-4.81,1.38-10.99,16.04-10.99,8.47,0,12.36,5.04,12.36,10.99,0,4.58-2.75,9.39-15.57,9.39-9.39,0-12.37-3.2-12.83-9.39Zm20.39,96.19c-11.91,0-17.41-2.75-17.41-8.47,0-.92.23-2.06.69-3.21,1.14,0,3.66-.23,11.45-.23,4.35,0,9.62,0,12.6.23,6.41.69,7.55,2.06,7.55,4.12,0,4.58-4.81,7.56-14.88,7.56Z"/>
      <path class="cls-1" d="m351.53,68.43c-22.9,0-34.58,17.18-35.27,27.94h-1.6c0-4.58-.91-9.16-2.98-13.51-4.12-8.24-13.05-14.43-30.46-14.43-32.29,0-24.73,13.06-24.73,24.51.23,20.61,0,37.56-1.6,76.26,0,3.9,0,8.25.68,12.37,1.61,8.24,5.96,15.11,19.01,15.11h21.3c19.24,0,19.93-9.84,18.78-20.61-.46-3.43-.91-7.1-1.14-10.3-1.15-13.97-.46-35.27.23-50.84,1.37-.23,2.74-.23,4.58-.23,6.87,0,9.39,3.89,9.39,9.61,0,14.66-3.44,30.24-3.44,48.33,0,14.69,9.35,24.34,27.55,26.06.44-4.05,1.63-8.34,4.11-12.47,4.91-8.18,12.46-11.67,16.66-13.56,2.38-1.12,5.84-2.53,10.4-3.8-.55-15.83,1.86-30.96,2.43-46.39.46-12.59,3.66-54.05-33.9-54.05Zm29.47,122.4c-3.51,1.57-6.91,3.13-8.48,6.79,6.2-1.49,9.31-4.16,10.68-7.75-.83.33-1.56.65-2.2.96Z"/>
      <path class="cls-1" d="m435.81,24c-15.34,0-27.25,1.84-26.79,19.47.45,17.18,12.59,19.01,27.94,19.01s27.02-1.83,26.79-19.01c-.68-17.63-13.05-19.47-27.94-19.47Zm-2.97,46.72c-32.3,0-24.74,13.06-24.74,24.51,0,19.93,0,34.3-1.44,70.22,1.25-.04,2.54-.06,3.85-.06,17.37,0,32.39,5.81,42.3,16.37.12.13.23.25.34.38,3.89-3.47,8.16-6.42,12.76-8.83-.32-2.58-.61-5.19-.78-7.54-1.61-19.24.91-45.58,1.6-68.94.69-20.15-9.39-26.11-33.89-26.11Zm-22.33,114.67c-.74,0-1.46.01-2.17.03,2.08,6.42,6.9,11.26,17.85,11.26h13.12c-6.01-7.34-16.61-11.29-28.8-11.29Z"/>
      <path class="cls-1" d="m503.37,185.48c5.16,7.53,13.73,12.55,27.31,13.38-5.98-7.83-14.97-12.71-27.31-13.38Zm53.04,5.35c-3.75,1.68-7.38,3.35-8.77,7.58,9.27-.82,19.19-2.66,24.67-6.31,2.38-1.53,3.9-3.67,4.66-6.31-9.93.92-16.81,3.23-20.56,5.04Zm12.46-120.11h-14.89c0-3.66-.22-10.53,0-14.88.69-14.66-21.52-10.08-31.37-10.08-6.18,0-8.7,2.75-10.54,8.25-1.6,5.49-3.2,13.05-20.15,19.01-7.56,2.74-8.47,5.49-8.7,8.93-.46,5.95.91,14.65.46,21.52-.23,4.81,2.74,6.88,7.78,6.88h5.96c.22,11.22-1.15,39.39-.92,49.92.06,1.76.17,3.49.34,5.19,1.16-.05,2.33-.07,3.52-.07,17.89,0,30.1,6.16,38.08,12.82,3.54-2.79,7.13-4.44,9.58-5.54,4.83-2.29,14.17-5.74,28.2-6.88-1.37-3.24-4.6-5.16-7.12-5.52-3.67-.46-6.87-.23-9.16-.46-3.44-.23-5.73-1.6-6.18-6.41-.69-4.58.22-24.51.45-43.05h17.18c5.04,0,6.41-2.07,6.41-6.88,0-9.62.23-20.15.23-25.87,0-4.13-1.83-6.88-9.16-6.88Z"/>
      <path class="cls-1" d="m690.71,143.32c11.91,0,20.84-5.95,20.84-26.56,0-27.94-19.24-48.33-56.34-48.33-43.97,0-65.5,27.94-65.5,64.59,0,12.05,2.06,23.35,6.48,33.08,9.68,1.38,18.34,4.73,25.38,9.83,2.26-1.38,4.32-2.31,5.77-2.94,5.18-2.5,18.32-7.6,39.04-7.6,17.27,0,29.04,4.41,36.96,9.75.1-1.36.09-2.8-.03-4.33-.92-12.14-8.71-19.24-8.71-19.24-6.41,2.98-19.23,5.95-30.46,5.95-16.71,0-22.67-5.49-23.36-13.51l.46-.69h49.47Zm-37.33-36.64c6.41,0,10.53,4.58,10.53,10.31,0,4.12-.68,5.72-.68,5.72h-22.22c-1.14-5.27,0-16.03,12.37-16.03Zm13,78.71c-15.17,0-25.72,3.29-30.67,5.77-2.47,1.07-4.86,2.22-6.54,4.15,7.31,2.38,15.73,3.67,25.35,3.67,16.04,0,27.95-2.07,35.04-5.5,1.01-.5,1.97-1.03,2.89-1.59-5.94-4.12-14.58-6.5-26.07-6.5Z"/>
      <path class="cls-1" d="m439.31,196.68c-6.01-7.34-16.61-11.29-28.8-11.29-.74,0-1.46.01-2.17.03-11.72.24-20.12,2.44-25.14,4.45-.83.33-1.56.65-2.2.96-3.51,1.57-6.91,3.13-8.48,6.79-1.22,2.87-1.32,7.02.57,13.48.81,3.15,2.04,5.3,2.69,6.3.27.42.44.63.44.63,0,0,10.55-5.11,23.74-5.11,8.41,0,11.38,3.79,11.05,8.57-1.32,15.66-37.26,38.74-50.62,51.27l-1.64,16.82c-.5,6.76,2.14,9.56,10.05,9.56h54.07c9.07,0,10.72-1.32,11.54-7.58l1.65-11.22c.83-6.42-1.65-10.55-9.06-9.72-4.13.33-19.62.99-25.39,1.32l.16-1.49c18.99-16.76,39.48-30.94,42.42-53.77.13-.96.22-1.94.28-2.94.44-6.86-1.51-12.59-5.16-17.06Z"/>
      <path class="cls-1" d="m538.87,218.93c-1.36-7.82-4.05-14.65-8.19-20.07-5.98-7.83-14.97-12.71-27.31-13.38-.98-.06-1.98-.09-3.01-.09-24.45,0-39.36,12.24-47.19,31.04-4.25,10.22-6.42,22.38-6.88,35.56-.83,27.36,12.03,48.8,39.56,48.8,33.96,0,49.46-25.39,53.42-57.7.97-8.69.86-16.86-.4-24.16Zm-30.27,23.99c-1.98,15.17-8.24,29.84-19.78,29.84-9.56,0-12.53-11.7-12.03-23.57.65-17.97,6.59-35.78,20.44-35.78,11.04,0,13.19,14.02,11.37,29.51Z"/>
      <path class="cls-1" d="m585.92,185.39c-3.22,0-6.2.15-8.95.4-9.93.92-16.81,3.23-20.56,5.04-3.75,1.68-7.38,3.35-8.77,7.58-.93,2.83-.86,6.81.86,12.69,1.16,4.46,3.13,6.93,3.13,6.93,0,0,10.46-5.07,23.58-5.11h.16c8.41,0,11.38,3.79,11.05,8.57-1.32,15.66-37.26,38.74-50.61,51.27l-1.65,16.82c-.5,6.76,2.14,9.56,10.06,9.56h54.07c9.06,0,10.71-1.32,11.54-7.58l1.65-11.22c.82-6.42-1.65-10.55-9.07-9.72-4.12.33-19.62.99-25.39,1.32l.17-1.49c19.78-17.47,41.21-32.14,42.69-56.71.01-.17.02-.34.02-.51.85-17.81-14.55-27.84-33.98-27.84Z"/>
      <path class="cls-1" d="m702.15,216.88c.39-2.66.48-5.22.26-7.65-.63-7.13-3.89-13.14-9.96-17.34-5.94-4.12-14.58-6.5-26.07-6.5-15.17,0-25.72,3.29-30.67,5.77-2.47,1.07-4.86,2.22-6.54,4.15-2.48,2.84-3.43,7.36-.88,15.79.66,2.22,1.53,4.03,2.22,5.29.71,1.27,1.25,1.97,1.25,1.97,0,0,1.01-.47,2.8-1.13,4.32-1.6,13.16-4.31,23.41-4.31,6.49,0,9.67,2.36,10.77,5.51.34,1.02.48,2.11.44,3.23-.17,5.77-3.96,10.55-13.85,10.55h-10.06c-3.46,0-4.28,2.31-4.61,4.78l-1.32,10.55c-.49,3.3,0,6.1,4.29,6.1h9.89c12.03,0,16.15,3.46,15.49,9.39-.66,6.6-5.77,11.05-16.81,11.05-15.33,0-29.18-6.76-29.18-6.76,0,0-3.3,3.79-5.44,9.56-4.29,11.05-2.64,15.99,7.09,19.46,4.94,1.81,15.99,4.45,28.85,4.45,28.68,0,46.82-15.99,47.48-36.6.82-20.77-18.14-23.41-18.14-23.41v-.99s16.65-4.45,19.29-22.91Z"/>
    </g>
  </g>
</svg>