<?xml version="1.0" encoding="UTF-8"?>
<svg id="Layer_2" data-name="Layer 2" xmlns="http://www.w3.org/2000/svg" viewBox="0 0 763.55 430.48">
  <defs>
    <style>
      .cls-1 {
        fill: #f3e5e5;
      }
    </style>
  </defs>
  <g id="Layer_1-2" data-name="Layer 1">
    <path class="cls-1" d="m763.33,79.3c-1.55-13.88-11.47-21.8-24.06-24.51-8.06-1.73-15.99.22-23.43,3.34-10.67,4.47-21.24,9.21-31.65,14.24-8.88,4.29-18.09,6.81-27.89,7.5-5,.35-9.67-.35-13.93-3.11-4.65-3.01-6.85-8.44-5.28-13.2,1.3-3.93,4.01-6.83,7.85-8.07,4.58-1.48,9.38-2.29,14.09-3.4,7.31-1.72,14.8-2.89,21.88-5.29,10.5-3.56,18.84-10.36,25.13-19.56,3.62-5.29,4.59-10.99,2.53-17.12-.67-2.02-1.87-3.61-3.75-4.73-4.67-2.79-9.75-4.27-15.09-4.92-11.67-1.43-22.85.46-33.55,5.22-2.44,1.08-4.74,2.47-7.11,3.72.08.2.16.4.24.6.69-.11,1.39-.15,2.06-.32,5.73-1.46,11.37-1.08,17.04.51,3.75,1.05,6.12,3.39,7.4,6.88.64,1.74,1.07,3.62,1.21,5.47,1.04,13.98-10.1,25.29-22.11,28.03-9.3,2.12-18.8,1.84-28.24.47-6.73-.99-13.41-1.04-19.98,1.07-7.18,2.31-12.72,6.45-14.57,14.1-.73,3.06-.65,6.35-.68,9.53-.04,3.73,1.17,7.19,3.31,10.23,6.98,9.93,16.96,13.51,28.61,12.79,4.25-.27,8.46-1.51,12.62-2.57,9.73-2.48,18.45-7.27,27.09-12.2,2.11-1.2,4.14-2.59,6.37-3.5,5.38-2.2,11.03-3.18,16.86-3.2,5.16-.02,9.78,1.55,13.96,4.47,11.01,7.67,10.59,23.87-.14,30.24-.15.09-.24.27-.49.55,7.3-1.4,12.89-5.3,17.97-10.31-.05,3.27-.87,6.26-2.5,9.04-2.76,4.75-6.74,8.21-11.41,10.97-.65.38-1.25.84-2.11,1.42,3.97,2.63,8.01,4.25,12.45,4.44,8.68.39,16.79-1.98,24.51-5.76,15.14-7.44,26.78-25.15,24.79-43.06Zm-269.1,237.96c-13.85,0-19.79,17.81-20.44,35.78-.5,11.87,2.47,23.57,12.03,23.57,11.54,0,17.8-14.67,19.78-29.84,1.82-15.49-.33-29.51-11.37-29.51Zm0,0c-13.85,0-19.79,17.81-20.44,35.78-.5,11.87,2.47,23.57,12.03,23.57,11.54,0,17.8-14.67,19.78-29.84,1.82-15.49-.33-29.51-11.37-29.51Zm0,0c-13.85,0-19.79,17.81-20.44,35.78-.5,11.87,2.47,23.57,12.03,23.57,11.54,0,17.8-14.67,19.78-29.84,1.82-15.49-.33-29.51-11.37-29.51Zm0,0c-13.85,0-19.79,17.81-20.44,35.78-.5,11.87,2.47,23.57,12.03,23.57,11.54,0,17.8-14.67,19.78-29.84,1.82-15.49-.33-29.51-11.37-29.51Zm0,0c-13.85,0-19.79,17.81-20.44,35.78-.5,11.87,2.47,23.57,12.03,23.57,11.54,0,17.8-14.67,19.78-29.84,1.82-15.49-.33-29.51-11.37-29.51Zm0,0c-13.85,0-19.79,17.81-20.44,35.78-.5,11.87,2.47,23.57,12.03,23.57,11.54,0,17.8-14.67,19.78-29.84,1.82-15.49-.33-29.51-11.37-29.51Zm0,0c-13.85,0-19.79,17.81-20.44,35.78-.5,11.87,2.47,23.57,12.03,23.57,11.54,0,17.8-14.67,19.78-29.84,1.82-15.49-.33-29.51-11.37-29.51Zm0,0c-13.85,0-19.79,17.81-20.44,35.78-.5,11.87,2.47,23.57,12.03,23.57,11.54,0,17.8-14.67,19.78-29.84,1.82-15.49-.33-29.51-11.37-29.51Zm0,0c-13.85,0-19.79,17.81-20.44,35.78-.5,11.87,2.47,23.57,12.03,23.57,11.54,0,17.8-14.67,19.78-29.84,1.82-15.49-.33-29.51-11.37-29.51Zm156.15-106.73c-12.37,0-13.51,10.76-12.37,16.03h22.22s.68-1.6.68-5.72c0-5.73-4.12-10.31-10.53-10.31Zm0,0c-12.37,0-13.51,10.76-12.37,16.03h22.22s.68-1.6.68-5.72c0-5.73-4.12-10.31-10.53-10.31Zm-156.15,106.73c-13.85,0-19.79,17.81-20.44,35.78-.5,11.87,2.47,23.57,12.03,23.57,11.54,0,17.8-14.67,19.78-29.84,1.82-15.49-.33-29.51-11.37-29.51Zm0,0c-13.85,0-19.79,17.81-20.44,35.78-.5,11.87,2.47,23.57,12.03,23.57,11.54,0,17.8-14.67,19.78-29.84,1.82-15.49-.33-29.51-11.37-29.51Zm156.15-106.73c-12.37,0-13.51,10.76-12.37,16.03h22.22s.68-1.6.68-5.72c0-5.73-4.12-10.31-10.53-10.31Zm0,0c-12.37,0-13.51,10.76-12.37,16.03h22.22s.68-1.6.68-5.72c0-5.73-4.12-10.31-10.53-10.31Zm-156.15,106.73c-13.85,0-19.79,17.81-20.44,35.78-.5,11.87,2.47,23.57,12.03,23.57,11.54,0,17.8-14.67,19.78-29.84,1.82-15.49-.33-29.51-11.37-29.51Zm-330.51-111.31c-14.66,0-16.49,6.18-16.04,10.99.46,6.19,3.44,9.39,12.83,9.39,12.82,0,15.57-4.81,15.57-9.39,0-5.95-3.89-10.99-12.36-10.99Zm11.68,95.5c-2.98-.23-8.25-.23-12.6-.23-7.79,0-10.31.23-11.45.23-.46,1.15-.69,2.29-.69,3.21,0,5.72,5.5,8.47,17.41,8.47,10.07,0,14.88-2.98,14.88-7.56,0-2.06-1.14-3.43-7.55-4.12Zm318.83,15.81c-13.85,0-19.79,17.81-20.44,35.78-.5,11.87,2.47,23.57,12.03,23.57,11.54,0,17.8-14.67,19.78-29.84,1.82-15.49-.33-29.51-11.37-29.51Zm156.15-106.73c-12.37,0-13.51,10.76-12.37,16.03h22.22s.68-1.6.68-5.72c0-5.73-4.12-10.31-10.53-10.31Zm0,0c-12.37,0-13.51,10.76-12.37,16.03h22.22s.68-1.6.68-5.72c0-5.73-4.12-10.31-10.53-10.31Zm-156.15,106.73c-13.85,0-19.79,17.81-20.44,35.78-.5,11.87,2.47,23.57,12.03,23.57,11.54,0,17.8-14.67,19.78-29.84,1.82-15.49-.33-29.51-11.37-29.51Zm-318.83-15.81c-2.98-.23-8.25-.23-12.6-.23-7.79,0-10.31.23-11.45.23-.46,1.15-.69,2.29-.69,3.21,0,5.72,5.5,8.47,17.41,8.47,10.07,0,14.88-2.98,14.88-7.56,0-2.06-1.14-3.43-7.55-4.12Zm.68-84.51c0-5.95-3.89-10.99-12.36-10.99-14.66,0-16.49,6.18-16.04,10.99.46,6.19,3.44,9.39,12.83,9.39,12.82,0,15.57-4.81,15.57-9.39Zm551.19,25.06c2.61-10.07,2.93-20.39.96-30.82-.81-4.25-1.98-8.5-3.54-12.78-2.8-7.7-6.48-14.53-11.04-20.51-6.16-8.12-13.86-14.69-23.01-19.72-4.27-2.34-8.87-4.36-13.77-6.05-1.35-.46-2.11-1.28-2.52-2.6-1.1-3.39-.39-6.62.78-9.79,2.84-7.67,7.25-14.35,13.54-20.45-1.07.09-1.67.07-2.24.2-6.11,1.23-12.34,2.12-18.3,3.86-9.18,2.64-18.11,5.9-26.7,9.91h-.02c-1.82.87-3.65,1.76-5.42,2.67l-26.96,18.45c-6.69,6.12-12.55,13.04-17.55,20.92-1.7-3.59-4.01-6.21-6.1-8.04-4.15-3.63-9.4-5.83-15.65-6.56-.82-6.05-3.39-11.54-7.5-15.84-9.62-10.08-24.03-10.08-28.77-10.08-3.63,0-7.04.23-10.06.43-1.83.13-3.72.25-4.78.25-8.29,0-23.15,2.85-29.51,21.92l-.12.36-.3,1.04c-.16.56-.37,1.3-.52,1.69-.45.4-2.21,1.74-6.87,3.38l-.2.07c-.93.34-1.82.69-2.69,1.07.96-3.71,1.41-7.75,1.35-12.09v-.51c-.81-20.48-12.44-29.62-19.3-33.25-9.04-4.78-19.11-5.44-28.64-5.44-8.94,0-25.58,0-36.89,11.61-6.87,7.05-10.2,16.6-9.9,28.39.23,8.42,2.33,14.91,5.22,19.88-.73.88-1.39,1.78-1.98,2.68-.86-1.07-1.78-2.12-2.75-3.13-6.56-6.84-18.48-15-37.98-15-13.44,0-25.02,4.21-34.06,10.74-11.81-9.05-26.75-10.74-36.25-10.74-8.48,0-18.41.65-26.97,4.5l-1.53-4.5h-83.26c-28.87,0-50.03,5.7-64.42,17.4.2-8.8-.47-23.23-10.66-33.82-4.85-5.04-13.76-11.06-28.66-11.06h-21.3c-13.48,0-23.84,3.88-30.78,11.53C-.54,153.4.81,167.37,1.71,176.61c.19,2,.38,3.9.4,5.3v.16c.21,7.94-.87,64.65-2.05,96.07v.37c-.18,8.85-.5,25.32,11.04,37.08,4.83,4.92,13.64,10.78,28.18,10.78h21.3c8.22,0,15.28-1.43,21.11-4.28.86,10.63,6.66,27.44,33.02,35.41,12.47,3.76,29.11,5.52,52.37,5.52,25.37,0,45.93-4.48,61.1-13.31,11.64-6.77,19.88-16.03,24.24-26.96,5.25,2.38,11.35,3.62,18.17,3.62h21.3c10.99,0,19.88-2.53,26.51-7.53,7.76,5.53,18.28,9.25,32.16,9.77,2.03,6.14,4.83,10.07,6.05,11.6l7.61,9.99c-2.18,1.76-4.15,3.32-5.71,4.56-5.96,4.71-11.6,9.17-15.79,13.11l-5.49,5.14-2.4,24.55-.02.25c-.66,9.03,1.69,16.5,6.98,22.19,5.44,5.86,13.19,8.83,23.02,8.83h54.07c6.67,0,13.72-.59,20.05-4.87,2.54-1.71,4.49-3.7,6.01-5.76,10,8.05,22.63,12.28,36.92,12.28s25.93-3.21,36.4-9.42c5.37,5.16,12.75,7.77,21.97,7.77h54.07c6.31,0,12.94-.53,19-4.2.21.07.41.15.59.21,7.5,2.73,20.76,5.64,35.64,5.64,18.37,0,34.54-5.18,46.75-14.97,12.82-10.27,20.18-24.8,20.71-40.91.4-10.4-2.23-18.78-6.45-25.34,3.55-5.37,6.28-11.92,7.41-19.82,1.41-9.66.2-18.86-3.4-26.82,4.73-8.73,5.19-17.63,4.71-23.63-.37-4.88-1.39-9.25-2.75-13.09,1-1.51,1.95-3.06,2.87-4.67,3.58-6.29,6.22-12.7,7.89-19.23ZM81.96,172.05c-.46,13.06-3.9,78.33-2.52,97.57.91,13.05,7.55,30.91-17.87,30.91h-21.3c-19.23,0-19.46-15.57-19.23-27.48,1.14-30.46,2.29-88.4,2.06-97.33-.23-13.05-7.1-30.92,18.32-30.92h21.3c19.46,0,19.69,15.35,19.24,27.25Zm140.16,54.97c.45,26.11-23.82,32.29-58.18,32.29-3.43,0-5.26.92-5.26,3.44,0,2.29,1.6,4.12,6.18,4.12,3.89,0,27.48-.69,32.52-.69,21.99,0,39.62,9.85,39.62,31.61,0,24.27-24.73,39.39-68.93,39.39-37.33,0-65.04-4.58-65.5-23.59-.46-19.93,26.33-16.95,26.33-16.95v-1.14s-16.71-.69-16.71-18.78c0-24.28,26.79-21.07,26.79-21.07v-1.15s-36.87-3.66-37.56-36.41c-.68-24.05,11.22-45.81,65.04-45.81h68.94s10.76,31.61-13.05,31.61c-5.27.23-9.85-.69-14.2-1.38l-.23,1.38c7.1,2.52,13.97,11.22,14.2,23.13Zm258.1-41.22c.23-3.44,1.14-6.19,8.7-8.93,16.95-5.96,18.55-13.52,20.15-19.01,1.84-5.5,4.36-8.25,10.54-8.25,9.85,0,32.06-4.58,31.37,10.08-.22,4.35,0,11.22,0,14.88h14.89c7.33,0,9.16,2.75,9.16,6.88,0,5.72-.23,16.25-.23,25.87,0,4.81-1.37,6.88-6.41,6.88h-17.18c-.23,18.54-1.14,38.47-.45,43.05.45,4.81,2.74,6.18,6.18,6.41,2.29.23,5.49,0,9.16.46,2.52.36,5.75,2.28,7.12,5.52-14.03,1.14-23.37,4.59-28.2,6.88-2.45,1.1-6.04,2.75-9.58,5.54-7.98-6.66-20.19-12.82-38.08-12.82-1.19,0-2.36.02-3.52.07-.17-1.7-.28-3.43-.34-5.19-.23-10.53,1.14-38.7.92-49.92h-5.96c-5.04,0-8.01-2.07-7.78-6.88.45-6.87-.92-15.57-.46-21.52Zm-47.41-57.95c14.89,0,27.26,1.84,27.94,19.47.23,17.18-11.91,19.01-26.79,19.01s-27.49-1.83-27.94-19.01c-.46-17.63,11.45-19.47,26.79-19.47Zm-79.87,162.23c-2.48,4.13-3.67,8.42-4.11,12.47-18.2-1.72-27.55-11.37-27.55-26.06,0-18.09,3.44-33.67,3.44-48.33,0-5.72-2.52-9.61-9.39-9.61-1.84,0-3.21,0-4.58.23-.69,15.57-1.38,36.87-.23,50.84.23,3.2.68,6.87,1.14,10.3,1.15,10.77.46,20.61-18.78,20.61h-21.3c-13.05,0-17.4-6.87-19.01-15.11-.68-4.12-.68-8.47-.68-12.37,1.6-38.7,1.83-55.65,1.6-76.26,0-11.45-7.56-24.51,24.73-24.51,17.41,0,26.34,6.19,30.46,14.43,2.07,4.35,2.98,8.93,2.98,13.51h1.6c.69-10.76,12.37-27.94,35.27-27.94,37.56,0,34.36,41.46,33.9,54.05-.57,15.43-2.98,30.56-2.43,46.39-4.56,1.27-8.02,2.68-10.4,3.8-4.2,1.89-11.75,5.38-16.66,13.56Zm88.53,27.51c-.06,1-.15,1.98-.28,2.94-2.94,22.83-23.43,37.01-42.42,53.77l-.16,1.49c5.77-.33,21.26-.99,25.39-1.32,7.41-.83,9.89,3.3,9.06,9.72l-1.65,11.22c-.82,6.26-2.47,7.58-11.54,7.58h-54.07c-7.91,0-10.55-2.8-10.05-9.56l1.64-16.82c13.36-12.53,49.3-35.61,50.62-51.27.33-4.78-2.64-8.57-11.05-8.57-13.19,0-23.74,5.11-23.74,5.11,0,0-.17-.21-.44-.63-.65-1-1.88-3.15-2.69-6.3-1.89-6.46-1.79-10.61-.57-13.48,1.57-3.66,4.97-5.22,8.48-6.79.64-.31,1.37-.63,2.2-.96,5.02-2.01,13.42-4.21,25.14-4.45.71-.02,1.43-.03,2.17-.03,12.19,0,22.79,3.95,28.8,11.29,3.65,4.47,5.6,10.2,5.16,17.06Zm-33.96-48.35c-1.31,0-2.6.02-3.85.06,1.44-35.92,1.44-50.29,1.44-70.22,0-11.45-7.56-24.51,24.74-24.51,24.5,0,34.58,5.96,33.89,26.11-.69,23.36-3.21,49.7-1.6,68.94.17,2.35.46,4.96.78,7.54-4.6,2.41-8.87,5.36-12.76,8.83-.11-.13-.22-.25-.34-.38-9.91-10.56-24.93-16.37-42.3-16.37Zm75.34,135.4c-27.53,0-40.39-21.44-39.56-48.8.46-13.18,2.63-25.34,6.88-35.56,7.83-18.8,22.74-31.04,47.19-31.04,1.03,0,2.03.03,3.01.09,12.34.67,21.33,5.55,27.31,13.38,4.14,5.42,6.83,12.25,8.19,20.07,1.26,7.3,1.37,15.47.4,24.16-3.96,32.31-19.46,57.7-53.42,57.7Zm125.63-20.45l-1.65,11.22c-.83,6.26-2.48,7.58-11.54,7.58h-54.07c-7.92,0-10.56-2.8-10.06-9.56l1.65-16.82c13.35-12.53,49.29-35.61,50.61-51.27.33-4.78-2.64-8.57-11.05-8.57h-.16c-13.12.04-23.58,5.11-23.58,5.11,0,0-1.97-2.47-3.13-6.93-1.72-5.88-1.79-9.86-.86-12.69,1.39-4.23,5.02-5.9,8.77-7.58,3.75-1.81,10.63-4.12,20.56-5.04,2.75-.25,5.73-.4,8.95-.4,19.43,0,34.83,10.03,33.98,27.84,0,.17-.01.34-.02.51-1.48,24.57-22.91,39.24-42.69,56.71l-.17,1.49c5.77-.33,21.27-.99,25.39-1.32,7.42-.83,9.89,3.3,9.07,9.72Zm90.67-63.46c-2.64,18.46-19.29,22.91-19.29,22.91v.99s18.96,2.64,18.14,23.41c-.66,20.61-18.8,36.6-47.48,36.6-12.86,0-23.91-2.64-28.85-4.45-9.73-3.47-11.38-8.41-7.09-19.46,2.14-5.77,5.44-9.56,5.44-9.56,0,0,13.85,6.76,29.18,6.76,11.04,0,16.15-4.45,16.81-11.05.66-5.93-3.46-9.39-15.49-9.39h-9.89c-4.29,0-4.78-2.8-4.29-6.1l1.32-10.55c.33-2.47,1.15-4.78,4.61-4.78h10.06c9.89,0,13.68-4.78,13.85-10.55.04-1.12-.1-2.21-.44-3.23-1.1-3.15-4.28-5.51-10.77-5.51-10.25,0-19.09,2.71-23.41,4.31-1.79.66-2.8,1.13-2.8,1.13,0,0-.54-.7-1.25-1.97-.69-1.26-1.56-3.07-2.22-5.29-2.55-8.43-1.6-12.95.88-15.79,1.68-1.93,4.07-3.08,6.54-4.15,4.95-2.48,15.5-5.77,30.67-5.77,11.49,0,20.13,2.38,26.07,6.5,6.07,4.2,9.33,10.21,9.96,17.34.22,2.43.13,4.99-.26,7.65Zm-11.44-73.56h-49.47l-.46.69c.69,8.02,6.65,13.51,23.36,13.51,11.23,0,24.05-2.97,30.46-5.95,0,0,7.79,7.1,8.71,19.24.12,1.53.13,2.97.03,4.33-7.92-5.34-19.69-9.75-36.96-9.75-20.72,0-33.86,5.1-39.04,7.6-1.45.63-3.51,1.56-5.77,2.94-7.04-5.1-15.7-8.45-25.38-9.83-4.42-9.73-6.48-21.03-6.48-33.08,0-36.65,21.53-64.59,65.5-64.59,37.1,0,56.34,20.39,56.34,48.33,0,20.61-8.93,26.56-20.84,26.56Zm-37.33-36.64c-12.37,0-13.51,10.76-12.37,16.03h22.22s.68-1.6.68-5.72c0-5.73-4.12-10.31-10.53-10.31Zm-156.15,106.73c-13.85,0-19.79,17.81-20.44,35.78-.5,11.87,2.47,23.57,12.03,23.57,11.54,0,17.8-14.67,19.78-29.84,1.82-15.49-.33-29.51-11.37-29.51Zm-343.57-12.6c0,5.72,5.5,8.47,17.41,8.47,10.07,0,14.88-2.98,14.88-7.56,0-2.06-1.14-3.43-7.55-4.12-2.98-.23-8.25-.23-12.6-.23-7.79,0-10.31.23-11.45.23-.46,1.15-.69,2.29-.69,3.21Zm13.06-98.71c-14.66,0-16.49,6.18-16.04,10.99.46,6.19,3.44,9.39,12.83,9.39,12.82,0,15.57-4.81,15.57-9.39,0-5.95-3.89-10.99-12.36-10.99Zm330.51,111.31c-13.85,0-19.79,17.81-20.44,35.78-.5,11.87,2.47,23.57,12.03,23.57,11.54,0,17.8-14.67,19.78-29.84,1.82-15.49-.33-29.51-11.37-29.51Zm156.15-106.73c-12.37,0-13.51,10.76-12.37,16.03h22.22s.68-1.6.68-5.72c0-5.73-4.12-10.31-10.53-10.31Zm0,0c-12.37,0-13.51,10.76-12.37,16.03h22.22s.68-1.6.68-5.72c0-5.73-4.12-10.31-10.53-10.31Zm-156.15,106.73c-13.85,0-19.79,17.81-20.44,35.78-.5,11.87,2.47,23.57,12.03,23.57,11.54,0,17.8-14.67,19.78-29.84,1.82-15.49-.33-29.51-11.37-29.51Zm0,0c-13.85,0-19.79,17.81-20.44,35.78-.5,11.87,2.47,23.57,12.03,23.57,11.54,0,17.8-14.67,19.78-29.84,1.82-15.49-.33-29.51-11.37-29.51Zm156.15-106.73c-12.37,0-13.51,10.76-12.37,16.03h22.22s.68-1.6.68-5.72c0-5.73-4.12-10.31-10.53-10.31Zm0,0c-12.37,0-13.51,10.76-12.37,16.03h22.22s.68-1.6.68-5.72c0-5.73-4.12-10.31-10.53-10.31Zm-156.15,106.73c-13.85,0-19.79,17.81-20.44,35.78-.5,11.87,2.47,23.57,12.03,23.57,11.54,0,17.8-14.67,19.78-29.84,1.82-15.49-.33-29.51-11.37-29.51Zm0,0c-13.85,0-19.79,17.81-20.44,35.78-.5,11.87,2.47,23.57,12.03,23.57,11.54,0,17.8-14.67,19.78-29.84,1.82-15.49-.33-29.51-11.37-29.51Zm156.15-106.73c-12.37,0-13.51,10.76-12.37,16.03h22.22s.68-1.6.68-5.72c0-5.73-4.12-10.31-10.53-10.31Zm0,0c-12.37,0-13.51,10.76-12.37,16.03h22.22s.68-1.6.68-5.72c0-5.73-4.12-10.31-10.53-10.31Zm-156.15,106.73c-13.85,0-19.79,17.81-20.44,35.78-.5,11.87,2.47,23.57,12.03,23.57,11.54,0,17.8-14.67,19.78-29.84,1.82-15.49-.33-29.51-11.37-29.51Zm0,0c-13.85,0-19.79,17.81-20.44,35.78-.5,11.87,2.47,23.57,12.03,23.57,11.54,0,17.8-14.67,19.78-29.84,1.82-15.49-.33-29.51-11.37-29.51Zm0,0c-13.85,0-19.79,17.81-20.44,35.78-.5,11.87,2.47,23.57,12.03,23.57,11.54,0,17.8-14.67,19.78-29.84,1.82-15.49-.33-29.51-11.37-29.51Zm0,0c-13.85,0-19.79,17.81-20.44,35.78-.5,11.87,2.47,23.57,12.03,23.57,11.54,0,17.8-14.67,19.78-29.84,1.82-15.49-.33-29.51-11.37-29.51Zm0,0c-13.85,0-19.79,17.81-20.44,35.78-.5,11.87,2.47,23.57,12.03,23.57,11.54,0,17.8-14.67,19.78-29.84,1.82-15.49-.33-29.51-11.37-29.51Zm0,0c-13.85,0-19.79,17.81-20.44,35.78-.5,11.87,2.47,23.57,12.03,23.57,11.54,0,17.8-14.67,19.78-29.84,1.82-15.49-.33-29.51-11.37-29.51Zm0,0c-13.85,0-19.79,17.81-20.44,35.78-.5,11.87,2.47,23.57,12.03,23.57,11.54,0,17.8-14.67,19.78-29.84,1.82-15.49-.33-29.51-11.37-29.51Z"/>
  </g>
</svg>