<?xml version="1.0" encoding="UTF-8"?>
<svg id="Layer_2" data-name="Layer 2" xmlns="http://www.w3.org/2000/svg" viewBox="0 0 727.56 316.79">
  <defs>
    <style>
      .cls-1 {
        fill: #f3e5e5;
      }
    </style>
  </defs>
  <g id="Layer_1-2" data-name="Layer 1">
    <path class="cls-1" d="m493.24,209.41c-13.86,0-19.8,17.81-20.45,35.78-.5,11.87,2.48,23.57,12.03,23.57,11.54,0,17.8-14.67,19.78-29.84,1.82-15.49-.33-29.51-11.36-29.51Zm0,0c-13.86,0-19.8,17.81-20.45,35.78-.5,11.87,2.48,23.57,12.03,23.57,11.54,0,17.8-14.67,19.78-29.84,1.82-15.49-.33-29.51-11.36-29.51Zm0,0c-13.86,0-19.8,17.81-20.45,35.78-.5,11.87,2.48,23.57,12.03,23.57,11.54,0,17.8-14.67,19.78-29.84,1.82-15.49-.33-29.51-11.36-29.51Zm0,0c-13.86,0-19.8,17.81-20.45,35.78-.5,11.87,2.48,23.57,12.03,23.57,11.54,0,17.8-14.67,19.78-29.84,1.82-15.49-.33-29.51-11.36-29.51Zm0,0c-13.86,0-19.8,17.81-20.45,35.78-.5,11.87,2.48,23.57,12.03,23.57,11.54,0,17.8-14.67,19.78-29.84,1.82-15.49-.33-29.51-11.36-29.51Zm0,0c-13.86,0-19.8,17.81-20.45,35.78-.5,11.87,2.48,23.57,12.03,23.57,11.54,0,17.8-14.67,19.78-29.84,1.82-15.49-.33-29.51-11.36-29.51Zm0,0c-13.86,0-19.8,17.81-20.45,35.78-.5,11.87,2.48,23.57,12.03,23.57,11.54,0,17.8-14.67,19.78-29.84,1.82-15.49-.33-29.51-11.36-29.51Zm156.14-106.73c-12.36,0-13.51,10.76-12.36,16.03h22.22s.67-1.6.67-5.72c0-5.73-4.12-10.31-10.53-10.31Zm0,0c-12.36,0-13.51,10.76-12.36,16.03h22.22s.67-1.6.67-5.72c0-5.73-4.12-10.31-10.53-10.31Zm-156.14,106.73c-13.86,0-19.8,17.81-20.45,35.78-.5,11.87,2.48,23.57,12.03,23.57,11.54,0,17.8-14.67,19.78-29.84,1.82-15.49-.33-29.51-11.36-29.51Zm0,0c-13.86,0-19.8,17.81-20.45,35.78-.5,11.87,2.48,23.57,12.03,23.57,11.54,0,17.8-14.67,19.78-29.84,1.82-15.49-.33-29.51-11.36-29.51Zm156.14-106.73c-12.36,0-13.51,10.76-12.36,16.03h22.22s.67-1.6.67-5.72c0-5.73-4.12-10.31-10.53-10.31Zm0,0c-12.36,0-13.51,10.76-12.36,16.03h22.22s.67-1.6.67-5.72c0-5.73-4.12-10.31-10.53-10.31Zm-156.14,106.73c-13.86,0-19.8,17.81-20.45,35.78-.5,11.87,2.48,23.57,12.03,23.57,11.54,0,17.8-14.67,19.78-29.84,1.82-15.49-.33-29.51-11.36-29.51ZM162.73,98.1c-14.67,0-16.49,6.18-16.05,10.99.46,6.19,3.44,9.39,12.83,9.39,12.82,0,15.57-4.81,15.57-9.39,0-5.95-3.89-10.99-12.35-10.99Zm11.67,95.5c-2.98-.23-8.25-.23-12.6-.23-7.79,0-10.31.23-11.45.23-.46,1.15-.69,2.29-.69,3.21,0,5.72,5.5,8.47,17.41,8.47,10.07,0,14.88-2.98,14.88-7.56,0-2.06-1.14-3.43-7.55-4.12Zm318.84,15.81c-13.86,0-19.8,17.81-20.45,35.78-.5,11.87,2.48,23.57,12.03,23.57,11.54,0,17.8-14.67,19.78-29.84,1.82-15.49-.33-29.51-11.36-29.51Zm156.14-106.73c-12.36,0-13.51,10.76-12.36,16.03h22.22s.67-1.6.67-5.72c0-5.73-4.12-10.31-10.53-10.31Zm0,0c-12.36,0-13.51,10.76-12.36,16.03h22.22s.67-1.6.67-5.72c0-5.73-4.12-10.31-10.53-10.31Zm-156.14,106.73c-13.86,0-19.8,17.81-20.45,35.78-.5,11.87,2.48,23.57,12.03,23.57,11.54,0,17.8-14.67,19.78-29.84,1.82-15.49-.33-29.51-11.36-29.51Zm-318.84-15.81c-2.98-.23-8.25-.23-12.6-.23-7.79,0-10.31.23-11.45.23-.46,1.15-.69,2.29-.69,3.21,0,5.72,5.5,8.47,17.41,8.47,10.07,0,14.88-2.98,14.88-7.56,0-2.06-1.14-3.43-7.55-4.12Zm.68-84.51c0-5.95-3.89-10.99-12.35-10.99-14.67,0-16.49,6.18-16.05,10.99.46,6.19,3.44,9.39,12.83,9.39,12.82,0,15.57-4.81,15.57-9.39Zm544.18,56.21c-.49-6.48-2.13-12.07-4.18-16.7.45-.45.88-.89,1.28-1.33,7.43-8.12,11.2-19.73,11.2-34.51,0-19.69-7.39-37.24-20.8-49.44-13.59-12.36-32.8-18.89-55.54-18.89s-43.73,6.85-58.65,19.88c-1.69-5.01-4.6-8.49-7.19-10.75-4.15-3.63-9.4-5.83-15.65-6.56-.82-6.05-3.39-11.54-7.5-15.84-9.62-10.08-24.03-10.08-28.77-10.08-3.63,0-7.04.23-10.06.43-1.83.13-3.72.25-4.78.25-8.29,0-23.15,2.85-29.51,21.92l-.12.36-.3,1.04c-.16.56-.37,1.3-.52,1.69-.45.4-2.21,1.74-6.87,3.38l-.2.07c-.93.34-1.82.69-2.69,1.07.96-3.71,1.41-7.75,1.35-12.09v-.51c-.81-20.48-12.44-29.62-19.3-33.25-9.04-4.78-19.11-5.44-28.64-5.44-8.94,0-25.58,0-36.89,11.61-6.87,7.05-10.2,16.6-9.9,28.39.23,8.42,2.33,14.91,5.22,19.88-.73.88-1.39,1.78-1.98,2.68-.86-1.07-1.78-2.12-2.75-3.13-6.56-6.84-18.48-15-37.98-15-13.44,0-25.02,4.21-34.06,10.74-11.81-9.05-26.75-10.74-36.25-10.74-8.48,0-18.41.65-26.97,4.5l-1.53-4.5h-83.26c-28.87,0-50.03,5.7-64.42,17.4.2-8.8-.47-23.23-10.66-33.82-4.85-5.04-13.76-11.06-28.66-11.06h-21.3c-13.48,0-23.84,3.88-30.78,11.53C-.54,39.71.81,53.68,1.71,62.92c.19,2,.38,3.9.4,5.3v.16c.21,7.94-.87,64.65-2.05,96.07v.37c-.18,8.85-.5,25.32,11.04,37.08,4.83,4.92,13.64,10.78,28.18,10.78h21.3c8.22,0,15.28-1.43,21.11-4.28.86,10.63,6.66,27.44,33.02,35.41,12.47,3.76,29.11,5.52,52.37,5.52,25.37,0,45.93-4.48,61.1-13.31,11.64-6.77,19.88-16.03,24.24-26.96,5.25,2.38,11.35,3.62,18.17,3.62h21.3c10.99,0,19.88-2.53,26.51-7.53,7.76,5.53,18.28,9.25,32.16,9.77,2.03,6.14,4.83,10.07,6.05,11.6l7.61,9.99c-2.18,1.76-4.15,3.32-5.71,4.56-5.96,4.71-11.6,9.17-15.79,13.11l-5.49,5.14-2.4,24.55-.02.25c-.66,9.03,1.69,16.5,6.98,22.19,5.44,5.86,13.19,8.83,23.02,8.83h54.07c6.67,0,13.72-.59,20.05-4.87,2.54-1.71,4.49-3.7,6.01-5.76,10,8.05,22.63,12.28,36.92,12.28s25.93-3.21,36.4-9.42c5.37,5.16,12.75,7.77,21.97,7.77h54.07c6.31,0,12.94-.53,19-4.2.21.07.41.15.59.21,7.5,2.73,20.76,5.64,35.64,5.64,18.37,0,34.54-5.18,46.75-14.97,12.82-10.27,20.18-24.8,20.71-40.91.4-10.4-2.23-18.78-6.45-25.34,3.55-5.37,6.28-11.92,7.41-19.82,1.41-9.66.2-18.86-3.4-26.82,4.73-8.73,5.19-17.63,4.71-23.63ZM80.97,64.2c-.47,13.06-3.91,78.33-2.53,97.57.91,13.05,7.55,30.91-17.87,30.91h-21.3c-19.23,0-19.46-15.57-19.23-27.48,1.14-30.46,2.29-88.4,2.06-97.33-.23-13.05-7.1-30.92,18.32-30.92h21.31c19.45,0,19.68,15.35,19.24,27.25Zm140.15,54.97c.45,26.11-23.82,32.29-58.18,32.29-3.43,0-5.26.92-5.26,3.44,0,2.29,1.6,4.12,6.18,4.12,3.89,0,27.48-.69,32.52-.69,21.99,0,39.62,9.85,39.62,31.61,0,24.27-24.73,39.39-68.93,39.39-37.33,0-65.04-4.58-65.5-23.59-.46-19.93,26.33-16.95,26.33-16.95v-1.14s-16.71-.69-16.71-18.78c0-24.28,26.8-21.07,26.8-21.07v-1.15s-36.88-3.66-37.57-36.41c-.68-24.05,11.22-45.81,65.05-45.81h68.93s10.76,31.61-13.05,31.61c-5.27.23-9.85-.69-14.2-1.38l-.23,1.38c7.1,2.52,13.97,11.22,14.2,23.13Zm258.11-41.22c.22-3.44,1.13-6.19,8.69-8.93,16.95-5.96,18.56-13.52,20.15-19.01,1.84-5.5,4.36-8.25,10.54-8.25,9.86,0,32.06-4.58,31.38,10.08-.22,4.35,0,11.22,0,14.88h14.88c7.33,0,9.17,2.75,9.17,6.88,0,5.72-.24,16.25-.24,25.87,0,4.81-1.37,6.88-6.41,6.88h-17.17c-.23,18.54-1.15,38.47-.45,43.05.45,4.81,2.73,6.18,6.17,6.41,2.3.23,5.49,0,9.16.46,2.52.36,5.75,2.28,7.13,5.52-14.04,1.14-23.38,4.59-28.21,6.88-2.45,1.1-6.03,2.75-9.58,5.54-7.97-6.66-20.19-12.82-38.08-12.82-1.19,0-2.36.02-3.52.07-.17-1.7-.28-3.43-.34-5.19-.23-10.53,1.14-38.7.92-49.92h-5.95c-5.05,0-8.02-2.07-7.79-6.88.45-6.87-.91-15.57-.45-21.52Zm-47.42-57.95c14.89,0,27.26,1.84,27.94,19.47.24,17.18-11.91,19.01-26.78,19.01s-27.49-1.83-27.95-19.01c-.46-17.63,11.46-19.47,26.79-19.47Zm-2.97,46.72c24.5,0,34.58,5.96,33.9,26.11-.7,23.36-3.22,49.7-1.61,68.94.17,2.35.46,4.96.78,7.54-4.6,2.41-8.87,5.36-12.76,8.83-.11-.13-.22-.25-.34-.38-9.91-10.56-24.93-16.37-42.29-16.37-1.32,0-2.61.02-3.86.06,1.44-35.92,1.44-50.29,1.44-70.22,0-11.45-7.56-24.51,24.74-24.51Zm-76.9,115.51c-2.47,4.13-3.67,8.42-4.11,12.47-18.2-1.72-27.54-11.37-27.54-26.06,0-18.09,3.44-33.67,3.44-48.33,0-5.72-2.53-9.61-9.4-9.61-1.83,0-3.21,0-4.58.23-.69,15.57-1.38,36.87-.23,50.84.23,3.2.68,6.87,1.14,10.3,1.15,10.77.46,20.61-18.78,20.61h-21.3c-13.04,0-17.4-6.87-19.01-15.11-.68-4.12-.68-8.47-.68-12.37,1.61-38.7,1.84-55.65,1.61-76.26,0-11.45-7.57-24.51,24.73-24.51,17.4,0,26.33,6.19,30.45,14.43,2.07,4.35,2.98,8.93,2.98,13.51h1.61c.68-10.76,12.36-27.94,35.27-27.94,37.55,0,34.35,41.46,33.89,54.05-.57,15.43-2.98,30.56-2.43,46.39-4.56,1.27-8.01,2.68-10.4,3.8-4.2,1.89-11.75,5.38-16.66,13.56Zm88.54,27.51c-.07,1-.16,1.98-.29,2.94-2.94,22.83-23.42,37.01-42.42,53.77l-.16,1.49c5.77-.33,21.26-.99,25.39-1.32,7.41-.83,9.89,3.3,9.06,9.72l-1.65,11.22c-.82,6.26-2.47,7.58-11.54,7.58h-54.07c-7.91,0-10.55-2.8-10.05-9.56l1.64-16.82c13.36-12.53,49.3-35.61,50.63-51.27.32-4.78-2.65-8.57-11.05-8.57-13.2,0-23.74,5.11-23.74,5.11,0,0-.18-.21-.44-.63-.66-1-1.89-3.15-2.7-6.3-1.89-6.46-1.79-10.61-.57-13.48,1.57-3.66,4.98-5.22,8.48-6.79.64-.31,1.37-.63,2.2-.96,5.03-2.01,13.42-4.21,25.14-4.45.71-.02,1.43-.03,2.18-.03,12.18,0,22.78,3.95,28.79,11.29,3.66,4.47,5.6,10.2,5.17,17.06Zm41.37,87.05c-27.53,0-40.38-21.44-39.56-48.8.46-13.18,2.63-25.34,6.88-35.56,7.83-18.8,22.74-31.04,47.19-31.04,1.03,0,2.03.03,3.01.09,12.35.67,21.33,5.55,27.31,13.38,4.14,5.42,6.84,12.25,8.19,20.07,1.26,7.3,1.38,15.47.4,24.16-3.96,32.31-19.46,57.7-53.42,57.7Zm125.64-20.45l-1.66,11.22c-.83,6.26-2.48,7.58-11.54,7.58h-54.06c-7.93,0-10.57-2.8-10.07-9.56l1.65-16.82c13.35-12.53,49.29-35.61,50.61-51.27.33-4.78-2.63-8.57-11.05-8.57h-.15c-13.13.04-23.59,5.11-23.59,5.11,0,0-1.97-2.47-3.13-6.93-1.71-5.88-1.78-9.86-.86-12.69,1.4-4.23,5.02-5.9,8.77-7.58,3.75-1.81,10.63-4.12,20.57-5.04,2.75-.25,5.72-.4,8.94-.4,19.43,0,34.83,10.03,33.98,27.84,0,.17-.01.34-.02.51-1.48,24.57-22.9,39.24-42.69,56.71l-.17,1.49c5.77-.33,21.27-.99,25.39-1.32,7.42-.83,9.89,3.3,9.08,9.72Zm90.66-63.46c-2.63,18.46-19.29,22.91-19.29,22.91v.99s18.96,2.64,18.14,23.41c-.66,20.61-18.8,36.6-47.48,36.6-12.86,0-23.91-2.64-28.85-4.45-9.73-3.47-11.38-8.41-7.09-19.46,2.15-5.77,5.44-9.56,5.44-9.56,0,0,13.85,6.76,29.18,6.76,11.05,0,16.15-4.45,16.82-11.05.65-5.93-3.47-9.39-15.5-9.39h-9.89c-4.29,0-4.78-2.8-4.29-6.1l1.32-10.55c.34-2.47,1.15-4.78,4.61-4.78h10.06c9.9,0,13.69-4.78,13.85-10.55.05-1.12-.1-2.21-.43-3.23-1.11-3.15-4.28-5.51-10.77-5.51-10.25,0-19.1,2.71-23.42,4.31-1.79.66-2.79,1.13-2.79,1.13,0,0-.54-.7-1.25-1.97-.7-1.26-1.57-3.07-2.23-5.29-2.54-8.43-1.6-12.95.88-15.79,1.68-1.93,4.08-3.08,6.55-4.15,4.94-2.48,15.5-5.77,30.66-5.77,11.49,0,20.14,2.38,26.07,6.5,6.07,4.2,9.34,10.21,9.96,17.34.22,2.43.13,4.99-.26,7.65Zm-11.43-73.56h-49.47l-.46.69c.69,8.02,6.64,13.51,23.35,13.51,11.23,0,24.05-2.97,30.46-5.95,0,0,7.79,7.1,8.71,19.24.12,1.53.13,2.97.03,4.33-7.92-5.34-19.69-9.75-36.96-9.75-20.72,0-33.86,5.1-39.04,7.6-1.45.63-3.51,1.56-5.77,2.94-7.03-5.1-15.7-8.45-25.38-9.83-4.42-9.73-6.47-21.03-6.47-33.08,0-36.65,21.53-64.59,65.5-64.59,37.09,0,56.33,20.39,56.33,48.33,0,20.61-8.93,26.56-20.83,26.56Zm-37.34-36.64c-12.36,0-13.51,10.76-12.36,16.03h22.22s.67-1.6.67-5.72c0-5.73-4.12-10.31-10.53-10.31Zm-156.14,106.73c-13.86,0-19.8,17.81-20.45,35.78-.5,11.87,2.48,23.57,12.03,23.57,11.54,0,17.8-14.67,19.78-29.84,1.82-15.49-.33-29.51-11.36-29.51Zm-343.58-12.6c0,5.72,5.5,8.47,17.41,8.47,10.07,0,14.88-2.98,14.88-7.56,0-2.06-1.14-3.43-7.55-4.12-2.98-.23-8.25-.23-12.6-.23-7.79,0-10.31.23-11.45.23-.46,1.15-.69,2.29-.69,3.21Zm13.07-98.71c-14.67,0-16.49,6.18-16.05,10.99.46,6.19,3.44,9.39,12.83,9.39,12.82,0,15.57-4.81,15.57-9.39,0-5.95-3.89-10.99-12.35-10.99Zm330.51,111.31c-13.86,0-19.8,17.81-20.45,35.78-.5,11.87,2.48,23.57,12.03,23.57,11.54,0,17.8-14.67,19.78-29.84,1.82-15.49-.33-29.51-11.36-29.51Zm156.14-106.73c-12.36,0-13.51,10.76-12.36,16.03h22.22s.67-1.6.67-5.72c0-5.73-4.12-10.31-10.53-10.31Zm0,0c-12.36,0-13.51,10.76-12.36,16.03h22.22s.67-1.6.67-5.72c0-5.73-4.12-10.31-10.53-10.31Zm-156.14,106.73c-13.86,0-19.8,17.81-20.45,35.78-.5,11.87,2.48,23.57,12.03,23.57,11.54,0,17.8-14.67,19.78-29.84,1.82-15.49-.33-29.51-11.36-29.51Zm0,0c-13.86,0-19.8,17.81-20.45,35.78-.5,11.87,2.48,23.57,12.03,23.57,11.54,0,17.8-14.67,19.78-29.84,1.82-15.49-.33-29.51-11.36-29.51Zm156.14-106.73c-12.36,0-13.51,10.76-12.36,16.03h22.22s.67-1.6.67-5.72c0-5.73-4.12-10.31-10.53-10.31Zm0,0c-12.36,0-13.51,10.76-12.36,16.03h22.22s.67-1.6.67-5.72c0-5.73-4.12-10.31-10.53-10.31Zm-156.14,106.73c-13.86,0-19.8,17.81-20.45,35.78-.5,11.87,2.48,23.57,12.03,23.57,11.54,0,17.8-14.67,19.78-29.84,1.82-15.49-.33-29.51-11.36-29.51Zm0,0c-13.86,0-19.8,17.81-20.45,35.78-.5,11.87,2.48,23.57,12.03,23.57,11.54,0,17.8-14.67,19.78-29.84,1.82-15.49-.33-29.51-11.36-29.51Zm156.14-106.73c-12.36,0-13.51,10.76-12.36,16.03h22.22s.67-1.6.67-5.72c0-5.73-4.12-10.31-10.53-10.31Zm0,0c-12.36,0-13.51,10.76-12.36,16.03h22.22s.67-1.6.67-5.72c0-5.73-4.12-10.31-10.53-10.31Zm-156.14,106.73c-13.86,0-19.8,17.81-20.45,35.78-.5,11.87,2.48,23.57,12.03,23.57,11.54,0,17.8-14.67,19.78-29.84,1.82-15.49-.33-29.51-11.36-29.51Zm0,0c-13.86,0-19.8,17.81-20.45,35.78-.5,11.87,2.48,23.57,12.03,23.57,11.54,0,17.8-14.67,19.78-29.84,1.82-15.49-.33-29.51-11.36-29.51Zm0,0c-13.86,0-19.8,17.81-20.45,35.78-.5,11.87,2.48,23.57,12.03,23.57,11.54,0,17.8-14.67,19.78-29.84,1.82-15.49-.33-29.51-11.36-29.51Zm0,0c-13.86,0-19.8,17.81-20.45,35.78-.5,11.87,2.48,23.57,12.03,23.57,11.54,0,17.8-14.67,19.78-29.84,1.82-15.49-.33-29.51-11.36-29.51Zm0,0c-13.86,0-19.8,17.81-20.45,35.78-.5,11.87,2.48,23.57,12.03,23.57,11.54,0,17.8-14.67,19.78-29.84,1.82-15.49-.33-29.51-11.36-29.51Z"/>
  </g>
</svg>